PathFileType  4	(X/Y/Z) C:\Users\antoi\Documents\MyRepositories\mobilecap\ResultsAnalysis
DataRate	CameraRate	NumFrames	NumMarkers	Units	OrigDataRate	OrigDataStartFrame	OrigNumFrames
100.0	100.0	4	51	mm	100.0	40	157
Frame#	Time	r_knee			r_shank_antsup			r_ankle			r_calc			r_5meta			r_toe			L_knee			L_shank_antsup			L_ankle			L_calc			L_5meta			L_toe			r_sh2			r_sh3			r_sh4			L_sh2			L_sh3			r_thigh1			r_thigh2			r_thigh3			r_thigh4			r_thigh5			L_thigh1			L_thigh2			L_thigh3			L_thigh4			r.ASIS			r.PSIS			L.ASIS			L.PSIS			C7			R_Shoulder			L_Shoulder			R_Sternum			L_Sternum			R_humerus			R_elbow_med			R_elbow_lat			R_forearm			R_wrist_radius			R_wrist_ulna			L_humerus			L_elbow_med			L_elbow_lat			L_forearm			L_wrist_radius			L_wrist_ulna			R_HJC			L_HJC			R_HJC_reg			L_HJC_reg			
		X1	Y1	Z1	X2	Y2	Z2	X3	Y3	Z3	X4	Y4	Z4	X5	Y5	Z5	X6	Y6	Z6	X7	Y7	Z7	X8	Y8	Z8	X9	Y9	Z9	X10	Y10	Z10	X11	Y11	Z11	X12	Y12	Z12	X13	Y13	Z13	X14	Y14	Z14	X15	Y15	Z15	X16	Y16	Z16	X17	Y17	Z17	X18	Y18	Z18	X19	Y19	Z19	X20	Y20	Z20	X21	Y21	Z21	X22	Y22	Z22	X23	Y23	Z23	X24	Y24	Z24	X25	Y25	Z25	X26	Y26	Z26	X27	Y27	Z27	X28	Y28	Z28	X29	Y29	Z29	X30	Y30	Z30	X31	Y31	Z31	X32	Y32	Z32	X33	Y33	Z33	X34	Y34	Z34	X35	Y35	Z35	X36	Y36	Z36	X37	Y37	Z37	X38	Y38	Z38	X39	Y39	Z39	X40	Y40	Z40	X41	Y41	Z41	X42	Y42	Z42	X43	Y43	Z43	X44	Y44	Z44	X45	Y45	Z45	X46	Y46	Z46	X47	Y47	Z47	X48	Y48	Z48	X49	Y49	Z49	X50	Y50	Z50	X51	Y51	Z51	

40	0.39000000	270.47084	488.51172	-52.44349	305.63474	437.67479	-64.00155	178.18171	94.55589	-100.30550	118.17228	61.54987	-149.65685	319.47009	33.42121	-62.16314	347.99888	58.69913	-120.40394	411.18370	517.56121	-354.63137	411.91326	430.65382	-368.72783	249.30000	154.48090	-312.47416	188.18325	134.09028	-250.35861	341.98791	58.83006	-350.76758	397.78957	71.03702	-307.90853	285.64708	326.01112	-80.81929	235.29732	441.20176	-25.45408	217.40964	326.44220	-29.44799	331.67231	474.94885	-365.71419	283.53488	363.03599	-357.15581	365.87136	781.44549	-106.83888	368.53005	668.46722	-100.86163	355.32347	649.48729	-37.78282	307.12642	782.31392	-14.02888	308.06216	667.42283	-10.28312	339.04366	829.15698	-370.12316	394.69019	699.37429	-381.81703	234.93236	785.93677	-372.22459	286.98155	660.58952	-360.17198	352.84912	957.41400	-75.16892	159.25521	1001.83515	-144.35212	349.41030	953.93039	-309.55199	153.58809	999.44183	-242.38425	241.37183	1465.57556	-160.27855	301.71237	1408.72309	-2.21136	295.77952	1419.34834	-328.58254	343.22837	1358.52416	-153.08789	344.37595	1358.17208	-191.60659	312.16212	1167.26204	68.49121	250.45569	1078.10828	41.64072	289.36338	1077.67807	90.70377	371.89258	957.35376	86.32382	423.68794	871.04090	56.12805	391.99658	857.51431	90.09421	249.70954	1197.49075	-426.85546	187.27299	1100.93611	-388.81480	208.79177	1106.07735	-444.46499	260.59865	972.59312	-472.19254	292.39069	867.68606	-460.68324	255.41087	861.70732	-482.48567	273.61263	879.74722	-107.44177	257.96746	887.27463	-297.32220	280.70550	892.62342	-101.91968	271.77862	888.85272	-256.34388	
41	0.40000000	273.25749	488.57231	-51.37456	307.93050	437.35874	-62.73587	178.26305	95.00151	-100.17214	118.38586	61.83272	-149.67566	319.50237	33.33709	-62.06914	347.80759	58.31180	-120.24996	423.57024	518.51062	-354.06784	427.83125	431.76201	-368.37329	281.16966	146.62309	-311.86624	221.90537	122.55242	-249.30427	378.59041	56.59119	-351.61626	433.85290	71.47305	-308.98260	287.19478	325.83450	-79.73413	237.27004	441.41130	-24.70414	218.58578	326.80184	-28.82706	345.51605	471.57407	-364.45885	303.58041	357.37359	-355.99951	373.85106	780.28846	-105.97850	375.49888	667.35821	-99.93653	361.12671	648.50629	-36.93946	315.02124	782.09077	-13.56466	313.97396	666.91861	-9.50836	348.74784	829.69150	-369.77278	405.40641	700.31993	-381.14730	244.97260	785.64659	-371.39393	298.20305	660.62939	-359.47504	361.77597	957.11400	-74.39493	168.70551	1001.61261	-143.69205	358.96487	953.80387	-308.92864	163.06272	999.02825	-241.66412	251.04784	1465.53319	-161.70713	312.60544	1409.83715	-3.74296	304.55390	1418.12868	-330.05685	352.96615	1358.49006	-154.36944	353.97570	1357.85094	-192.91701	325.16461	1169.15512	68.65529	263.53339	1079.44732	43.48112	303.28261	1079.59610	91.96408	386.55072	959.83592	87.40712	438.55387	873.61293	57.15069	407.36875	859.93527	91.60749	257.39556	1195.83375	-426.76511	195.36388	1099.40741	-387.55825	216.13230	1104.37106	-443.53726	267.40643	970.76452	-471.46838	299.25653	865.99086	-459.91690	262.12625	859.67418	-481.09821	282.89211	879.43414	-106.78505	267.47190	887.07551	-296.67966	289.86658	892.66196	-101.06527	280.96759	888.58520	-255.57383	
42	0.41000000	276.29011	488.56339	-50.43174	310.46107	436.97814	-61.62612	178.40901	95.44068	-100.01502	118.57215	62.16448	-149.68435	319.54069	33.25316	-61.97753	347.67358	57.96270	-120.10659	435.47015	519.01387	-353.55438	443.46528	432.61556	-368.03669	313.19918	139.40576	-311.42498	255.91413	111.88308	-248.44703	414.96960	55.11606	-352.55553	469.49321	72.58461	-310.10525	288.89476	325.60703	-78.80665	239.53204	441.56748	-23.99010	220.00474	327.14337	-28.25417	359.29885	467.78389	-363.45397	323.75595	351.60560	-355.12608	381.87493	779.03736	-105.08559	382.63313	666.21924	-99.03551	367.01143	647.47115	-36.14963	322.86905	781.72209	-12.99219	319.99448	666.30407	-8.80006	358.14420	829.76674	-369.62768	415.55697	700.68886	-380.67071	254.61560	785.04342	-370.39234	308.86396	660.24216	-358.53950	370.91528	956.71636	-73.66603	178.22332	1001.25231	-143.06561	368.50627	953.38307	-308.37821	172.59118	998.44396	-240.97404	260.72611	1465.30753	-163.24871	323.43365	1410.70999	-5.36969	313.40993	1416.72444	-331.62616	362.68390	1358.25738	-155.71110	363.56920	1357.34885	-194.29156	338.08910	1170.82886	68.67297	276.63904	1080.54665	45.13394	317.11356	1081.32955	93.03544	401.06973	962.07925	88.39442	453.27989	875.94318	58.14488	422.58184	862.13211	93.06809	265.25626	1193.96085	-426.72872	203.61679	1097.70875	-386.35554	223.66904	1102.46157	-442.62564	274.34939	968.69560	-470.72739	306.18735	863.99353	-459.14975	268.90201	857.46748	-479.76789	292.28335	879.01333	-106.10383	276.98128	886.61438	-296.00943	299.14294	892.51017	-100.22703	290.24867	888.07430	-254.84019	
43	0.42000000	279.53299	488.48540	-49.59713	313.18245	436.52962	-60.65536	178.63621	95.86978	-99.82527	118.74348	62.55607	-149.67842	319.59418	33.16252	-61.88761	347.69203	57.70349	-119.97332	446.92380	519.09386	-353.09989	458.85637	433.25699	-367.72010	345.29413	132.92004	-311.19026	290.04226	102.23708	-247.89361	451.08521	54.41564	-353.46747	504.66730	74.38610	-311.13986	290.72237	325.33194	-78.01132	242.03861	441.68064	-23.30732	221.62395	327.47225	-27.72080	373.05691	463.68912	-362.74303	344.05629	345.82876	-354.58089	389.97042	777.71093	-104.14177	389.76062	665.00804	-98.15105	372.96615	646.37965	-35.39391	330.57064	781.21582	-12.24719	326.10387	665.58610	-8.14991	367.32306	829.41670	-369.65821	425.23031	700.52359	-380.38298	263.96200	784.17801	-369.25681	319.02954	659.49004	-357.42428	380.26408	956.21019	-72.96333	187.81842	1000.76424	-142.47585	378.06052	952.68207	-307.86894	182.18466	997.71135	-240.32776	270.42018	1464.91052	-164.91697	334.19826	1411.36572	-7.09398	322.35688	1415.15168	-333.28949	372.39653	1357.84606	-157.12487	373.16639	1356.68219	-195.73862	350.91890	1172.29934	68.53932	289.76272	1081.40047	46.56671	330.81495	1082.89381	93.90856	415.43986	964.10378	89.28170	467.86178	878.06086	59.11077	437.63092	864.15049	94.46476	273.28842	1191.88623	-426.74881	212.00664	1095.88842	-385.24003	231.39667	1100.37257	-441.75953	281.44317	966.41074	-469.97185	313.19353	861.72082	-458.36438	275.75893	855.10410	-478.48082	301.77711	878.48398	-105.39615	286.51616	885.90998	-295.31142	308.53879	892.16827	-99.39417	299.62989	887.34025	-254.12318	
